<svg version="1.1" xmlns="http://www.w3.org/2000/svg" xmlns:xlink="http://www.w3.org/1999/xlink" width="77.68987" height="73.80169" viewBox="0,0,77.68987,73.80169"><defs><linearGradient x1="240.00001" y1="145.42113" x2="240.00001" y2="214.57887" gradientUnits="userSpaceOnUse" id="color-1"><stop offset="0" stop-color="#ffcbc4"/><stop offset="1" stop-color="#ffc7c4"/></linearGradient></defs><g transform="translate(-201.15506,-143.09916)"><g data-paper-data="{&quot;isPaintingLayer&quot;:true}" fill-rule="nonzero" stroke-linecap="butt" stroke-linejoin="miter" stroke-miterlimit="10" stroke-dasharray="" stroke-dashoffset="0" style="mix-blend-mode: normal"><path d="M278.84494,180c0,20.37978 -17.39147,36.90084 -38.84494,36.90084c-21.45345,0 -38.84494,-16.52107 -38.84494,-36.90084c0,-20.37978 17.39147,-36.90084 38.84494,-36.90084c21.45345,0 38.84494,16.52107 38.84494,36.90084z" fill="#f17867" stroke="none" stroke-width="0"/><path d="M276.05217,180c0,19.09739 -16.1411,34.57887 -36.05216,34.57887c-19.91107,0 -36.05216,-15.4815 -36.05216,-34.57887c0,-19.09739 16.1411,-34.57887 36.05216,-34.57887c19.91107,0 36.05216,15.4815 36.05216,34.57887z" fill="url(#color-1)" stroke="none" stroke-width="0"/><path d="M235.25062,150.73238c-1.84586,2.20929 -5.22566,7.79132 -5.22566,7.79132c0,0 0.3994,-2.96031 1.98073,-7.21783c1.58131,-4.25751 4.57674,-6.13755 4.57674,-6.13755l5.34533,0.00464c0,0 -4.59454,3.06675 -6.67713,5.55942c0,0 1.84586,-2.20929 0.00001,0z" fill="#fc8b82" stroke="none" stroke-width="0"/><path d="M217.72495,176.01962c0,-1.71043 1.38657,-3.09699 3.09699,-3.09699c1.71043,0 3.09699,1.38657 3.09699,3.09699c0,1.71043 -1.38657,3.09699 -3.09699,3.09699c-1.71043,0 -3.09699,-1.38657 -3.09699,-3.09699z" fill="#ffffff" stroke="#c3070b" stroke-width="2.5"/><path d="M253.39555,176.01962c0,-1.71044 1.38657,-3.09699 3.09699,-3.09699c1.71044,0 3.09699,1.38657 3.09699,3.09699c0,1.71044 -1.38657,3.09699 -3.09699,3.09699c-1.71044,0 -3.09699,-1.38657 -3.09699,-3.09699z" fill="#ffffff" stroke="#c3070b" stroke-width="2.5"/><path d="M234.25331,181.33189c-0.14695,-0.15472 -0.25289,-0.38527 -0.23061,-0.72842c0.02839,-0.43734 0.23967,-0.66639 0.46458,-0.78599c0.11603,-0.26152 0.36416,-0.54455 0.8946,-0.5356c0.44971,0.00759 0.68951,0.2181 0.81739,0.44366c1.74427,0.03818 4.25608,0.11546 5.13668,1.17015c0.39086,0.46815 0.42908,1.14678 0.55403,1.74373c0.37756,1.8035 0.56825,4.58061 0.35285,6.44047c-0.06298,0.54386 0.00948,1.18738 -0.34309,1.60627c-1.36391,1.62041 -5.92521,0.55906 -7.74317,0.39559c-0.78105,-0.04335 -2.40324,0.01253 -2.82733,-0.87025c-0.36617,-0.76221 0.57623,-2.35548 0.91397,-3.06152c0.88704,-1.85432 1.58836,-3.80601 2.01011,-5.81809zM236.18507,181.66222c-0.38765,1.8603 -0.99276,3.66492 -1.75132,5.41047c-0.29364,0.6757 -0.58766,1.96233 -1.36,2.24553c-0.38619,0.14162 0.80806,-0.20924 1.21903,-0.1917c1.51619,0.13585 3.02315,0.28358 4.54579,0.3003c0.51235,0.00562 1.26319,0.46042 1.53689,0.02728c0.34957,-0.55324 -0.26627,-3.10795 -0.30952,-3.76634c-0.03173,-0.48275 0.21339,-2.94488 -0.17107,-3.46371c-0.35731,-0.48221 -2.32873,-0.54737 -3.70978,-0.56183z" fill="#c3070b" stroke="none" stroke-width="0.5"/><path d="M239.91185,182.18874c0.38446,0.51882 0.15949,3.00376 0.19121,3.48652c0.04326,0.65837 0.64695,3.25582 0.29736,3.80906c-0.2737,0.43316 -1.0375,-0.01454 -1.54986,-0.02016c-1.52263,-0.01671 -3.07293,-0.17813 -4.58911,-0.31399c-0.41097,-0.01752 -1.6075,0.32993 -1.22132,0.18831c0.77234,-0.28322 1.06142,-1.58286 1.35505,-2.25853c0.75856,-1.74553 1.38911,-3.59435 1.77676,-5.45466c1.38105,0.01446 3.38254,0.08125 3.73986,0.56347z" data-paper-data="{&quot;noHover&quot;:false,&quot;origItem&quot;:[&quot;Path&quot;,{&quot;applyMatrix&quot;:true,&quot;segments&quot;:[[[235.13383,182.12027],[1.76162,0.01844],[-0.49447,2.37292]],[[232.89992,189.02165],[0.96759,-2.22654],[-0.37455,0.86189]],[[231.16515,191.88598],[0.98517,-0.36126],[-0.49261,0.18064]],[[232.72009,191.64147],[-0.52421,-0.02235],[1.93398,0.1733]],[[238.51851,192.0245],[-1.9422,-0.02131],[0.65353,0.00717]],[[240.47891,192.05929],[-0.34911,0.55252],[0.4459,-0.7057]],[[240.08408,187.2551],[0.05518,0.8398],[-0.04046,-0.61579]],[[239.86588,182.83693],[0.49039,0.66178],[-0.45578,-0.61508]]],&quot;closed&quot;:true}]}" fill="#f3ffed" stroke="none" stroke-width="0.5"/></g></g></svg>