<svg version="1.1" xmlns="http://www.w3.org/2000/svg" xmlns:xlink="http://www.w3.org/1999/xlink" width="90.56068" height="103.99607" viewBox="0,0,90.56068,103.99607"><defs><radialGradient cx="229.48294" cy="182.59061" r="36.39876" gradientUnits="userSpaceOnUse" id="color-1"><stop offset="0" stop-color="#faf79a"/><stop offset="1" stop-color="#faf79a" stop-opacity="0"/></radialGradient><linearGradient x1="228.19235" y1="149.69695" x2="228.19235" y2="199.98329" gradientUnits="userSpaceOnUse" id="color-2"><stop offset="0" stop-color="#faf79a"/><stop offset="1" stop-color="#faf79a" stop-opacity="0"/></linearGradient><linearGradient x1="226.93637" y1="149.01026" x2="229.49107" y2="158.87015" gradientUnits="userSpaceOnUse" id="color-3"><stop offset="0" stop-color="#fffbd2"/><stop offset="1" stop-color="#fef7ab"/></linearGradient><linearGradient x1="213.76626" y1="160.99329" x2="213.76626" y2="166.85768" gradientUnits="userSpaceOnUse" id="color-4"><stop offset="0" stop-color="#fffbd2"/><stop offset="1" stop-color="#fef7ab"/></linearGradient></defs><g transform="translate(-194.79375,-128.94922)"><g data-paper-data="{&quot;isPaintingLayer&quot;:true}" fill-rule="nonzero" stroke-linejoin="miter" stroke-miterlimit="10" stroke-dasharray="" stroke-dashoffset="0" style="mix-blend-mode: normal"><g><path d="M225.24743,145.00977c0,0 -1.37251,-0.72213 -2.77248,-1.00253c-1.52739,-0.30593 -3.10565,-0.21921 -2.9334,-1.37477c0.4294,-2.88077 5.62339,-5.53827 10.31534,-5.06796c2.37747,0.23832 -5.99862,-4.959 -2.75504,-6.74794c4.56888,-2.51988 13.28264,3.87781 13.28264,3.87781c0,0 9.71859,-7.30985 13.91899,-3.78411c2.47009,2.07334 -4.58099,7.1255 -4.7631,7.00253c-0.31842,-0.21498 13.70269,-0.2017 12.88516,4.6603c-0.21371,1.27109 -3.04609,1.2844 -5.03925,1.78472c-1.10494,0.27734 -1.95197,1.33802 -1.95197,1.33802" fill="#b3ee34" stroke="#458b07" stroke-width="2" stroke-linecap="round"/><path d="M194.79375,187.66496c0,-25.00765 20.2727,-45.28034 45.28034,-45.28034c25.00765,0 45.28034,20.2727 45.28034,45.28034c0,25.00765 -20.2727,45.28034 -45.28034,45.28034c-25.00765,0 -45.28034,-20.2727 -45.28034,-45.28034z" fill="#f1b613" stroke="none" stroke-width="NaN" stroke-linecap="butt"/><path d="M197.53801,187.66496c0,-23.49202 19.04405,-42.53608 42.53608,-42.53608c23.49202,0 42.53608,19.04405 42.53608,42.53608c0,23.49202 -19.04405,42.53608 -42.53608,42.53608c-23.49202,0 -42.53608,-19.04405 -42.53608,-42.53608z" fill="#faf012" stroke="none" stroke-width="0" stroke-linecap="butt"/><path d="M275.17363,195.3377c-5.24834,21.95904 -26.4462,35.71082 -47.34675,30.71547c-20.90055,-4.99533 -33.5892,-26.8462 -28.34086,-48.80523c5.24834,-21.95904 26.44619,-35.71082 47.34675,-30.71547c20.90056,4.99535 33.5892,26.8462 28.34086,48.80524z" fill="#f7e709" stroke="none" stroke-width="0" stroke-linecap="butt"/></g><g fill="none" stroke="#f6d20a" stroke-width="3" stroke-linecap="round"><path d="M274.84703,194.95232c0,0 -5.99012,12.4239 -18.95576,21.10113c-10.13022,6.77963 -30.11974,10.99855 -30.11974,10.99855"/><path d="M270.83457,164.70453c0,0 -10.82293,20.26009 -30.23511,32.28521c-12.30047,7.61969 -38.59403,12.46916 -38.59403,12.46916"/><path d="M247.99442,224.89144c0,0 -19.71892,-2.90814 -29.7833,-8.89307c-11.41957,-6.7908 -18.67489,-17.03361 -18.67489,-17.03361"/><path d="M269.29131,208.84158c0,0 -15.59008,-3.18782 -21.49728,-5.42298c-5.48091,-2.07386 -12.76296,-7.54035 -12.76296,-7.54035"/><path d="M276.08164,179.51977c0,0 -23.65193,-6.73436 -29.33936,-14.82821c-3.77101,-5.36655 -0.59978,-18.19743 -0.59978,-18.19743"/></g><path d="M260.64844,188.94338c-4.01513,19.69742 -21.2233,32.82111 -38.43554,29.31255c-17.21224,-3.50856 -27.9106,-22.3207 -23.89546,-42.01812c4.01513,-19.69742 21.2233,-32.82111 38.43554,-29.31255c17.21224,3.50856 27.9106,22.3207 23.89546,42.01812z" fill="url(#color-1)" stroke="none" stroke-width="0" stroke-linecap="butt"/><path d="M255.46743,172.14955c-3.43439,13.6687 -18.77091,29.87462 -33.49361,27.43991c-14.72269,-2.43469 -23.87368,-15.48907 -20.43928,-29.15777c3.43439,-13.6687 17.70884,-23.84956 32.8763,-22.50151c23.37288,2.07734 24.49096,10.55066 21.05658,24.21936z" fill="url(#color-2)" stroke="none" stroke-width="0" stroke-linecap="butt"/><path d="M235.45652,151.74474c0.70545,2.72273 -2.14062,3.58364 -5.68843,4.50288c-3.5478,0.91924 -6.36555,3.12005 -8.78632,1.16058c-2.1862,-1.76961 2.40676,-7.47872 5.95457,-8.39796c3.5478,-0.91924 7.81471,0.01176 8.52015,2.73449z" fill="url(#color-3)" stroke="none" stroke-width="0" stroke-linecap="butt"/><path d="M210.83409,163.92548c0,-1.61941 1.31278,-2.93219 2.93219,-2.93219c1.61941,0 2.93219,1.31278 2.93219,2.93219c0,1.61941 -1.31278,2.93219 -2.93219,2.93219c-1.61941,0 -2.93219,-1.31278 -2.93219,-2.93219z" fill="url(#color-4)" stroke="none" stroke-width="0" stroke-linecap="butt"/><path d="M228.06822,156.19234c0,0 -1.11595,3.16368 -4.60028,4.12511c-2.96057,0.8169 -6.05051,-0.32342 -6.05051,-0.32342" data-paper-data="{&quot;index&quot;:null}" fill="none" stroke="#c88205" stroke-width="3" stroke-linecap="round"/><path d="M258.58266,165.53204c0,0 -1.77171,-0.19594 -3.89107,-1.55656c-2.49428,-1.60131 -3.528,-4.17635 -3.528,-4.17635" data-paper-data="{&quot;index&quot;:null}" fill="none" stroke="#c88205" stroke-width="3" stroke-linecap="round"/><path d="M226.14372,177.62788c0.27753,-2.92608 0.44205,-6.03469 -1.12033,-8.64244c-2.88857,-4.82128 -6.24143,0.48465 -6.94132,3.6987c-0.09871,0.6972 -0.64347,2.81265 -0.04505,3.59059c2.52496,0.76869 5.24472,1.40209 7.85186,1.42489c0.07126,-0.01632 0.14115,-0.03372 0.20957,-0.05219zM215.83119,172.27992c1.01616,-4.63716 5.64205,-10.82492 10.34225,-5.59822c2.63056,2.92524 2.60381,7.11595 2.27783,10.81882c0.16075,-0.02817 0.32061,-0.05955 0.4795,-0.09425c0,0 1.11821,-0.23889 1.3571,0.87932c0.23889,1.11821 -0.87932,1.3571 -0.87932,1.3571c-1.04916,0.21998 -2.12771,0.31939 -3.22027,0.32413c-2.46457,0.45748 -6.54752,0.09793 -8.8992,-1.53678c-0.94711,-0.28594 -1.87189,-0.5916 -2.76324,-0.89823l-0.7062,-0.19739c0,0 -1.10045,-0.31055 -0.78991,-1.41101c0.31055,-1.10045 1.41101,-0.78991 1.41101,-0.78991l0.82911,0.23585c0.07578,0.02607 0.15188,0.0522 0.2283,0.07834c-0.04879,-1.0589 0.20903,-2.28691 0.33303,-3.16778z" fill="#c88205" stroke="none" stroke-width="0.5" stroke-linecap="butt"/><path d="M226.12635,177.68366c-0.06843,0.01849 -0.13943,0.03668 -0.21069,0.053c-2.60714,-0.02279 -5.38645,-0.66138 -7.9114,-1.43005c-0.59841,-0.77795 -0.06648,-2.92175 0.0322,-3.61892c0.69988,-3.21404 4.12855,-8.55789 7.01713,-3.7366c1.56238,2.60775 1.39581,5.78675 1.11827,8.71284z" data-paper-data="{&quot;noHover&quot;:false,&quot;origItem&quot;:[&quot;Path&quot;,{&quot;applyMatrix&quot;:true,&quot;segments&quot;:[[[449.54293,351.6494],[0,0],[0.6068,-6.39754]],[[447.09346,332.75374],[3.41596,5.70154],[-6.31551,-10.54114]],[[431.9171,340.84048],[1.53022,-7.0271],[-0.21579,1.52433]],[[431.81862,348.69087],[-1.30838,-1.70087],[5.52052,1.68061]],[[448.98577,351.80622],[-5.70019,-0.04985],[0.1558,-0.03569]],[[449.44399,351.69211],[-0.14962,0.04039],[0,0]]],&quot;closed&quot;:true}]}" fill="#ffffff" stroke="none" stroke-width="0.5" stroke-linecap="butt"/><path d="M228.01386,183.31382c0.11779,1.13735 -1.01958,1.25515 -1.01958,1.25515l-0.97045,0.09591c-4.19116,0.05725 -7.9909,-0.51553 -11.85667,-2.18296c0,0 -1.04961,-0.45363 -0.59599,-1.50324c0.45363,-1.04962 1.50324,-0.59601 1.50324,-0.59601c3.56722,1.54488 7.04992,2.04946 10.91784,1.99553l0.76642,-0.08396c0,0 1.13735,-0.11779 1.25515,1.01958z" fill="#c88205" stroke="none" stroke-width="0.5" stroke-linecap="butt"/><path d="M245.42508,179.11164c0.12615,-1.13646 1.26262,-1.0103 1.26262,-1.0103l0.85654,0.09691c4.32371,0.72853 9.63969,1.43541 13.81005,-0.22754c0,0 1.064,-0.41878 1.48278,0.64523c0.41878,1.064 -0.64523,1.48278 -0.64523,1.48278c-4.60698,1.79304 -10.25056,1.15913 -15.02747,0.35465l-0.72898,-0.0791c0,0 -1.13646,-0.12616 -1.0103,-1.26263z" fill="#c88205" stroke="none" stroke-width="0.5" stroke-linecap="butt"/><path d="M258.9866,183.08324c0.14851,1.13377 -0.98527,1.28226 -0.98527,1.28226l-1.25438,0.16325c-2.6451,0.12155 -5.30556,0.04302 -7.94187,0.25354c0,0 -1.13986,0.09045 -1.23032,-1.04942c-0.09045,-1.13986 1.04941,-1.23032 1.04941,-1.23032c2.63104,-0.20752 5.28311,-0.1344 7.92239,-0.25193l1.15777,-0.15268c0,0 1.13377,-0.14851 1.28226,0.98527z" fill="#c88205" stroke="none" stroke-width="0.5" stroke-linecap="butt"/><path d="M247.8616,178.47896c0.01764,-0.07771 0.03948,-0.14876 0.06482,-0.21371c-0.02968,-2.87392 -0.42309,-6.88348 1.66031,-9.10052c2.75098,-2.92742 8.61158,-1.50488 10.61772,1.60903c0.83519,1.29639 1.07836,2.90566 1.27083,4.39424c0.07261,1.04399 0.53368,3.63411 -0.07122,4.53224c-0.85691,1.27229 -2.00787,1.27552 -3.27079,1.32577c-3.05007,0.12138 -6.16224,-0.60249 -9.1536,-1.12215l-0.25621,-0.05664c0,0 -1.11505,-0.25319 -0.86185,-1.36827zM250.19817,177.79772c2.19812,0.39729 4.43308,0.83785 6.65542,0.93386c0.20771,0.00897 2.37388,0.23056 2.57955,-0.19122c0.24478,-0.50202 -0.19208,-2.54791 -0.23382,-3.1491c-0.14182,-1.14532 -0.3088,-2.39668 -0.93352,-3.40444c-1.14806,-1.85193 -5.33828,-3.08826 -6.99919,-1.27034c-1.44589,1.58256 -1.15005,4.83909 -1.06841,7.08127z" fill="#c88205" stroke="none" stroke-width="0.5" stroke-linecap="butt"/><path d="M251.23447,170.68388c1.66093,-1.81792 5.92121,-0.57456 7.06926,1.27736c0.62473,1.00776 0.79817,2.29558 0.94,3.44091c0.04176,0.60121 0.46795,2.66706 0.22315,3.16905c-0.20567,0.42179 -2.38642,0.21084 -2.59412,0.20188c-2.22233,-0.096 -4.51296,-0.55053 -6.71109,-0.9478c-0.08163,-2.24218 -0.37311,-5.55881 1.07278,-7.14139z" data-paper-data="{&quot;noHover&quot;:false,&quot;origItem&quot;:[&quot;Path&quot;,{&quot;applyMatrix&quot;:true,&quot;segments&quot;:[[[502.13511,352.02075],[-0.1785,-4.90225],[4.80591,0.86863]],[[516.68637,354.06251],[-4.85886,-0.20987],[0.45412,0.01961]],[[522.32625,353.64441],[-0.44966,0.9222],[0.53518,-1.0976]],[[521.815,346.75927],[0.09129,1.31443],[-0.31008,-2.50413]],[[519.77395,339.31587],[1.3659,2.20335],[-2.51007,-4.04902]],[[504.47105,336.53842],[3.63141,-3.97467],[-3.16128,3.46011]]],&quot;closed&quot;:true}]}" fill="#ffffff" stroke="none" stroke-width="0.5" stroke-linecap="butt"/><path d="M252.02342,194.33315c-0.99256,0.5677 -1.56028,-0.42485 -1.56028,-0.42485l0.06079,0.07612c-0.34889,-0.4618 -1.40286,-2.6596 -1.79145,-2.7746c-1.20392,-0.35631 -1.5581,2.23858 -2.77527,2.54665c-0.73657,0.18643 -1.49902,-0.24924 -2.24855,-0.37386c-0.40279,-0.57787 -2.61405,-3.85919 -3.57718,-3.42955c-2.05986,0.91893 -2.37193,3.14593 -5.25612,2.31692c-1.74229,-0.50079 -2.52484,-2.69217 -4.24142,-3.24353c-1.68525,-0.54132 -4.16928,2.00987 -5.24353,2.9145c0,0 -0.87495,0.73615 -1.6111,-0.1388c-0.73615,-0.87495 0.1388,-1.6111 0.1388,-1.6111c1.84053,-1.54723 4.58521,-4.12111 7.27801,-3.3813c1.95212,0.53632 2.70293,2.6345 4.41799,3.29598c1.45488,0.56111 2.63258,-2.00333 3.83015,-2.33384c2.28694,-0.63115 4.66719,1.90916 5.54974,3.71923c1.15048,0.26833 2.23407,-2.8571 3.9405,-2.55923c1.90561,0.33264 2.2894,2.40018 3.34366,3.58765l0.17009,0.25336c0,0 0.5677,0.99256 -0.42485,1.56027z" fill="#c88205" stroke="none" stroke-width="0.5" stroke-linecap="butt"/></g></g></svg>