<svg version="1.1" xmlns="http://www.w3.org/2000/svg" xmlns:xlink="http://www.w3.org/1999/xlink" width="107.27589" height="115.2645" viewBox="0,0,107.27589,115.2645"><defs><radialGradient cx="226.0432" cy="181.97605" r="48.76838" gradientUnits="userSpaceOnUse" id="color-1"><stop offset="0" stop-color="#a5e210"/><stop offset="1" stop-color="#7ac717"/></radialGradient></defs><g transform="translate(-186.36206,-122.36775)"><g data-paper-data="{&quot;isPaintingLayer&quot;:true}" fill-rule="nonzero" stroke-linejoin="miter" stroke-miterlimit="10" stroke-dasharray="" stroke-dashoffset="0" style="mix-blend-mode: normal"><g stroke="none" stroke-width="0" stroke-linecap="butt"><g><path d="M186.36206,183.99431c0,-29.62344 24.01452,-53.63794 53.63794,-53.63794c29.62344,0 53.63794,24.01452 53.63794,53.63794c0,29.62344 -24.01452,53.63794 -53.63794,53.63794c-29.62344,0 -53.63794,-24.01452 -53.63794,-53.63794z" fill="#4a9e0c"/><path d="M189.37236,183.99431c0,-27.96088 22.66677,-50.62766 50.62766,-50.62766c27.96088,0 50.62766,22.66677 50.62766,50.62766c0,27.96088 -22.66677,50.62766 -50.62766,50.62766c-27.96088,0 -50.62766,-22.66677 -50.62766,-50.62766z" fill="#bbed7d"/></g><path d="M281.32312,177.90055c0,26.61689 -23.08352,53.12008 -49.53301,53.12008c-26.44947,0 -42.96509,-21.57724 -42.96509,-48.19412c0,-26.61689 24.21231,-50.63223 50.62766,-49.28879c21.52355,1.09465 41.87043,12.82003 41.87043,44.36285z" fill="url(#color-1)"/><path d="M274.84644,221.38351c-5.11281,3.64885 -5.01715,-0.14937 -5.01715,-4.8347c0,-4.68533 5.43714,-8.83876 9.76065,-8.11866c6.57238,1.09465 -1.17581,10.40725 -4.74347,12.95339z" fill="#faf5a7"/><path d="M280.41093,214.05163c-0.71713,2.93649 -2.86321,4.79547 -6.02059,5.83815c-4.41973,1.45954 -3.4664,-0.26114 -3.4664,-3.28395c0,-3.02281 0.50621,-6.93278 3.83128,-6.93278c3.32508,0 6.75035,-0.10372 5.65571,4.37861z" fill="#fdfef5"/></g><path d="M278.84533,137.43122c0.26447,4.49393 -5.39841,6.70036 -5.39841,6.70036c0,0 2.37615,7.00706 -1.44301,7.23181c-8.6127,0.50684 -9.61584,-5.51336 -7.93137,-10.12868c1.28213,-3.51295 5.86105,-0.97346 5.86105,-0.97346c0,0 6.0901,-7.98681 5.90729,-9.31634c-0.30406,-2.21119 -4.01623,1.3399 -3.83452,-0.44167c0.65811,-6.45231 13.22547,-9.19871 14.54159,-7.76366c1.20098,1.3095 -5.168,4.07275 -6.8446,7.47437c-1.30643,2.65058 -0.9868,5.02894 -0.85804,7.21728z" fill="#26820e" stroke="none" stroke-width="0" stroke-linecap="butt"/><g fill="none" stroke="#ebf352" stroke-width="2" stroke-linecap="round"><path d="M189.69164,193.24755c0,0 5.17492,-3.64085 6.84242,-7.38853c0.52487,-1.17959 -2.74949,-1.63011 -2.19228,-2.93453c1.83601,-4.29803 3.05483,-8.85007 7.41473,-12.36153c2.12867,-1.71442 7.48544,-0.24482 10.04486,-1.45746c1.16746,-0.55314 15.65022,10.92956 17.37645,9.75346c1.24637,-0.84918 1.08147,-4.18974 2.22712,-5.09495c1.66828,-1.31813 -2.44768,-4.83994 -1.42854,-7.26936c1.02779,-2.45007 1.76492,-2.65063 3.55213,-4.40358c1.2611,-1.23693 -4.77049,-5.85702 -4.77049,-5.85702c0,0 0.23776,-6.92159 2.85408,-9.21681c2.91713,-2.55909 7.05152,-0.77842 9.54718,-2.73108c1.51484,-1.18524 5.10451,5.10524 6.36123,4.1159c1.67027,-1.31486 0.64909,-4.06211 1.79908,-4.90201c5.56991,-4.06792 13.44005,-3.61683 13.44005,-3.61683"/><path d="M192.15462,190.23726l-2.46297,-2.73664"/><path d="M190.51261,174.3648l5.47326,3.28395"/><path d="M193.52292,165.06025c0,0 2.75669,0.05345 3.68987,1.26659c0.88911,1.15586 1.78339,5.84866 1.78339,5.84866"/><path d="M210.76369,168.34421c0,0 -5.09295,-4.46309 -5.1999,-7.67167c-0.15114,-4.53389 4.3789,-16.95798 4.3789,-16.95798"/><path d="M197.35421,166.15491c0,0 1.31749,-4.31699 2.58956,-5.15043c1.36657,-0.89533 5.34666,-0.04919 5.34666,-0.04919"/><path d="M200.09084,160.40797l-1.09465,-4.37861"/><path d="M202.00647,153.0191c0,0 9.72913,1.73154 11.74647,4.75753c0.67316,1.00972 2.70763,2.90506 2.36337,5.46229c-0.37476,2.78375 -2.34232,6.19997 -2.34232,6.19997"/><path d="M229.37276,167.79688c0,0 -6.45614,2.64727 -8.45887,2.46521c-2.01096,-0.18282 -3.5823,-3.55987 -3.5823,-3.55987"/><path d="M215.9633,164.23926c0,0 3.95684,-4.02534 6.25242,-3.84529c2.35514,0.18473 7.70437,4.93995 7.70437,4.93995"/><path d="M228.82545,155.20839l-4.37861,5.19959"/><path d="M226.36248,157.39769c0,0 -4.59751,-2.17996 -6.77328,-6.46362c-1.20803,-2.37838 -0.15509,-7.29824 -0.76785,-8.33651c-0.8014,-1.35794 -2.31072,-1.89334 -2.31072,-1.89334"/><path d="M213.77399,156.85036l5.47326,-5.74693"/><path d="M219.24723,147.27216l6.29424,-3.55762"/><path d="M223.35219,136.87295c0,0 2.58687,2.03371 3.47958,3.74146c0.26435,0.50573 -0.26399,2.58984 0.02972,3.39149c0.97614,2.6642 2.78495,4.90822 2.78495,4.90822"/><path d="M225.81514,138.51495c0,0 6.8221,-1.53662 10.15501,-1.35146c3.2319,0.17955 9.54873,2.44611 9.54873,2.44611"/><path d="M234.57236,144.80919c0,0 -1.3896,-1.35675 -1.57381,-2.20412c-0.25093,-1.15431 0.2055,-4.09014 0.2055,-4.09014"/><path d="M239.77197,144.26187l0.27367,-5.47326"/><path d="M248.80287,144.26187l-4.37861,-10.12554"/></g><g fill="none" stroke="#cced5d" stroke-width="2" stroke-linecap="round"><path d="M196.23217,207.65248c0,0 1.29835,-1.18867 2.28647,-1.03615c2.70127,0.41688 3.699,7.20007 6.80876,8.68839c2.30166,1.10157 4.0128,-0.75233 6.63867,0.96139c4.03696,2.63461 6.62093,3.76715 12.08687,5.79094c3.62047,1.3405 6.81943,0.41569 10.53165,0.5807c1.51223,0.06721 0.18949,-3.24401 1.79335,-2.19267c1.01614,0.66609 5.88412,-0.4456 7.21051,0.93541c2.32457,2.4203 0.58952,8.16503 0.58952,8.16503"/><path d="M208.93015,216.62862c0,0 2.89178,4.18686 3.92124,6.127c0.81976,1.54494 1.77095,4.60061 1.77095,4.60061"/><path d="M227.10139,223.41546l-0.43786,7.88149"/><path d="M231.91784,222.97761c0,0 1.99474,2.02887 2.54685,3.3539c0.54239,1.30172 0.73712,4.5276 0.73712,4.5276"/><path d="M214.84128,226.69942l4.15967,-5.6922"/></g><g fill="none" stroke="#ddf364" stroke-width="2" stroke-linecap="round"><path d="M254.09367,137.10101c0,0 -0.28433,4.28858 1.60515,7.13967c1.96963,2.97205 7.76465,6.34097 7.93159,9.56691c0.09081,1.75457 0.07984,4.88339 0.87325,8.74189c0.31315,1.52284 2.04048,2.06471 2.43256,3.77524c0.64773,2.82575 -0.85296,5.07201 -0.16232,8.18712c0.70509,3.18019 0.44301,5.36266 1.30165,8.50816c0.77819,2.85074 0.2095,8.12308 0.95507,10.68291c1.86912,6.41753 5.86142,9.07724 5.86142,9.07724"/><path d="M268.59779,188.00234c0,0 6.0624,3.97432 7.38526,5.9341c1.09797,1.62662 0.00365,5.01242 0.00365,5.01242"/><path d="M280.91264,178.42412c0,0 -3.60577,4.00473 -5.76102,4.96261c-1.92323,0.85476 -6.55381,0.51064 -6.55381,0.51064"/><path d="M266.95581,168.02494c0,0 4.6874,1.30312 6.46399,2.73307c1.94771,1.56769 7.21917,8.21343 7.21917,8.21343"/><path d="M266.40848,167.47761c0,0 3.09476,-1.46937 4.87601,-2.15757c2.15927,-0.83425 7.16515,-2.4947 7.16515,-2.4947"/><path d="M263.67188,156.53109c0,0 5.69557,-3.10315 7.8278,-2.49394c2.79471,0.79848 7.49734,6.87255 7.49734,6.87255"/><path d="M264.76652,146.67922l-1.91564,4.10495"/><path d="M264.76652,147.22652c0,0 -1.46412,-1.50062 -1.88262,-2.47712c-0.60548,-1.41285 -1.40133,-5.18544 -1.40133,-5.18544"/><path d="M271.06078,164.46731l0.82099,-9.85186"/><path d="M276.26037,187.18135c0,0 -2.55054,-3.1831 -3.66489,-4.93257c-0.93448,-1.46706 -2.57717,-4.86694 -2.57717,-4.86694c0,0 0.83004,-1.53236 1.18351,-2.33201c0.49364,-1.11678 1.50093,-3.74095 1.50093,-3.74095"/></g><path d="M216.38586,169.03649l7.21175,7.69254l-8.17331,4.80784" fill="none" stroke="#117b06" stroke-width="2.5" stroke-linecap="round"/><path d="M267.53358,183.16384l-8.17331,-4.80783l7.21175,-7.69254" data-paper-data="{&quot;index&quot;:null}" fill="none" stroke="#117b06" stroke-width="2.5" stroke-linecap="round"/><path d="M237.2584,196.20117c-1.53463,-0.58877 -3.27451,-1.14951 -4.5425,-0.72239c-2.36598,0.79699 -0.73365,4.21745 0.97682,4.72081c1.55244,0.45687 3.42891,-0.48209 4.89884,-0.82864c2.03609,-0.48003 4.16088,-0.58329 6.24476,-0.56979c1.21493,-0.02417 3.50586,0.01179 4.30607,-1.20328c0.58809,-0.89297 -0.45278,-2.57377 -1.36295,-2.81833c-2.03894,-0.54787 -5.98748,2.36709 -8.13342,2.78312l-1.11196,-0.03118c0,0 -1.27801,-0.08806 -1.27565,-1.33034zM240.40792,194.50844c2.63044,-0.96854 5.50742,-3.09279 8.11585,-2.36236c2.66702,0.74682 4.41957,4.38453 2.96878,6.85387c-1.30629,2.22337 -4.38864,2.47617 -6.63339,2.53776c-3.75653,-0.03085 -8.46463,2.29165 -11.9834,1.27372c-4.32486,-1.25109 -5.74939,-7.95886 -1.14184,-9.88703c2.52681,-1.05742 5.9929,0.64273 8.38204,1.44126c0,0 0.12895,0.0431 0.29196,0.14278z" fill="#117b06" stroke="none" stroke-width="0.5" stroke-linecap="butt"/><path d="M238.58879,197.53106l1.0026,0.03484c2.14593,-0.41605 6.2004,-3.35331 8.23934,-2.80545c0.91017,0.24455 1.95448,1.94494 1.36639,2.83794c-0.80021,1.21508 -3.09333,1.1939 -4.30824,1.21805c-2.08388,-0.0135 -4.29968,0.11339 -6.33576,0.59343c-1.46993,0.34655 -3.35881,1.26685 -4.91124,0.80998c-1.71048,-0.50337 -3.34489,-3.95806 -0.97889,-4.75507c1.26796,-0.42713 3.11131,0.16865 4.64595,0.75738c-0.00234,1.24226 1.27986,1.3089 1.27986,1.3089z" data-paper-data="{&quot;noHover&quot;:false,&quot;origItem&quot;:[&quot;Path&quot;,{&quot;applyMatrix&quot;:true,&quot;segments&quot;:[[[693.96122,268.92527],[-0.00426,2.2697],[-2.80387,-1.0757]],[[685.6618,267.60542],[2.31666,-0.78038],[-4.3228,1.45617]],[[687.44652,276.23064],[-3.12513,-0.91969],[2.8364,0.83472]],[[696.39703,274.71666],[-2.68566,0.63318],[3.72007,-0.87706]],[[707.80658,273.67562],[-3.80735,-0.02467],[2.21975,-0.04417]],[[715.67404,271.47715],[-1.46204,2.22001],[1.07448,-1.63153]],[[713.18385,266.32787],[1.66293,0.44683],[-3.72528,-1.00099]],[[698.32357,271.41284],[3.92076,-0.76015],[0,0]],[696.29194,271.35586]],&quot;closed&quot;:true}]}" fill="#ebffe9" stroke="none" stroke-width="0.5" stroke-linecap="butt"/></g></g></svg>