<svg version="1.1" xmlns="http://www.w3.org/2000/svg" xmlns:xlink="http://www.w3.org/1999/xlink" width="65.44178" height="68.98073" viewBox="0,0,65.44178,68.98073"><defs><radialGradient cx="230.12286" cy="176.12861" r="28.97131" gradientUnits="userSpaceOnUse" id="color-1"><stop offset="0" stop-color="#faf5d2"/><stop offset="1" stop-color="#f7ec81"/></radialGradient></defs><g transform="translate(-207.70873,-146.36488)"><g data-paper-data="{&quot;isPaintingLayer&quot;:true}" fill-rule="nonzero" stroke-linejoin="miter" stroke-miterlimit="10" stroke-dasharray="" stroke-dashoffset="0" style="mix-blend-mode: normal"><path d="M207.70873,182.62472c0,-18.07124 14.64963,-32.72089 32.72089,-32.72089c18.07125,0 32.72089,14.64963 32.72089,32.72089c0,18.07124 -14.64963,32.72089 -32.72089,32.72089c-18.07125,0 -32.72089,-14.64963 -32.72089,-32.72089z" fill="#e2ab15" stroke="none" stroke-width="NaN" stroke-linecap="butt"/><path d="M209.57849,182.62472c0,-17.0386 13.81251,-30.85113 30.85113,-30.85113c17.0386,0 30.85113,13.81251 30.85113,30.85113c0,17.0386 -13.81251,30.85113 -30.85113,30.85113c-17.0386,0 -30.85113,-13.81251 -30.85113,-30.85113z" fill="#f6e14a" stroke="none" stroke-width="0" stroke-linecap="butt"/><path d="M267.76514,181.33725c0,15.5634 -13.97561,28.18003 -29.23842,28.18003c-15.2628,0 -28.70419,-8.34287 -28.70419,-27.91292c0,-15.5634 13.70849,-29.51557 28.9713,-29.51557c18.73523,0 28.9713,13.68506 28.9713,29.24847z" fill="url(#color-1)" stroke="none" stroke-width="0" stroke-linecap="butt"/><path d="M245.3695,154.29983c0,0 -1.28081,3.05067 -5.20863,3.12577c-2.17413,0.04157 -3.68585,-3.02353 -3.68585,-3.02353" fill="none" stroke="#f0de4c" stroke-width="3" stroke-linecap="round"/><path d="M240.56442,156.86164c0,0 -0.6606,-2.54376 0.64218,-5.12861c1.63806,-3.2501 4.87857,-3.86814 4.87857,-3.86814" fill="none" stroke="#915f16" stroke-width="3" stroke-linecap="round"/><path d="M213.3614,175.7775c0,-0.6731 0.54565,-1.21874 1.21874,-1.21874c0.6731,0 1.21874,0.54566 1.21874,1.21874c0,0.6731 -0.54566,1.21874 -1.21874,1.21874c-0.6731,0 -1.21874,-0.54566 -1.21874,-1.21874z" fill="#f2d855" stroke="none" stroke-width="0" stroke-linecap="butt"/><path d="M215.02332,180.26473c0,-0.39774 0.32243,-0.72017 0.72017,-0.72017c0.39774,0 0.72017,0.32243 0.72017,0.72017c0,0.39774 -0.32243,0.72017 -0.72017,0.72017c-0.39774,0 -0.72017,-0.32243 -0.72017,-0.72017z" fill="#f2d855" stroke="none" stroke-width="0" stroke-linecap="butt"/><path d="M210.36992,188.90675c0,-0.76488 0.62006,-1.38494 1.38494,-1.38494c0.76488,0 1.38494,0.62006 1.38494,1.38494c0,0.76488 -0.62006,1.38494 -1.38494,1.38494c-0.76488,0 -1.38494,-0.62006 -1.38494,-1.38494z" fill="#f2d855" stroke="none" stroke-width="0" stroke-linecap="butt"/><path d="M219.56592,201.26041c0,-0.6731 0.54566,-1.21874 1.21874,-1.21874c0.6731,0 1.21874,0.54565 1.21874,1.21874c0,0.6731 -0.54566,1.21874 -1.21874,1.21874c-0.6731,0 -1.21874,-0.54566 -1.21874,-1.21874z" fill="#f2d855" stroke="none" stroke-width="0" stroke-linecap="butt"/><path d="M232.52897,202.58995c0,-1.10143 0.89289,-1.99431 1.99431,-1.99431c1.10143,0 1.99431,0.89289 1.99431,1.99431c0,1.10143 -0.89289,1.99431 -1.99431,1.99431c-1.10143,0 -1.99431,-0.89289 -1.99431,-1.99431z" fill="#f2d855" stroke="none" stroke-width="0" stroke-linecap="butt"/><path d="M228.87272,208.79449c0,-0.42834 0.34724,-0.77558 0.77558,-0.77558c0.42834,0 0.77558,0.34724 0.77558,0.77558c0,0.42834 -0.34724,0.77558 -0.77558,0.77558c-0.42834,0 -0.77558,-0.34724 -0.77558,-0.77558z" fill="#f2d855" stroke="none" stroke-width="0" stroke-linecap="butt"/><path d="M246.0848,207.63114c0,-0.88726 0.71926,-1.60654 1.60654,-1.60654c0.88726,0 1.60653,0.71926 1.60653,1.60654c0,0.88726 -0.71926,1.60654 -1.60653,1.60654c-0.88726,0 -1.60654,-0.71926 -1.60654,-1.60654z" fill="#f2d855" stroke="none" stroke-width="0" stroke-linecap="butt"/><path d="M252.40014,199.82009c0,-0.55071 0.44643,-0.99717 0.99716,-0.99717c0.55071,0 0.99717,0.44643 0.99717,0.99717c0,0.55071 -0.44643,0.99716 -0.99717,0.99716c-0.55071,0 -0.99716,-0.44643 -0.99716,-0.99716z" fill="#f2d855" stroke="none" stroke-width="0" stroke-linecap="butt"/><path d="M256.49956,199.15532c0,-0.85667 0.69447,-1.55113 1.55113,-1.55113c0.85667,0 1.55113,0.69447 1.55113,1.55113c0,0.85667 -0.69447,1.55113 -1.55113,1.55113c-0.85667,0 -1.55113,-0.69447 -1.55113,-1.55113z" fill="#f2d855" stroke="none" stroke-width="0" stroke-linecap="butt"/><path d="M253.72968,206.08002c0,-0.70369 0.57045,-1.27415 1.27415,-1.27415c0.70369,0 1.27415,0.57045 1.27415,1.27415c0,0.70369 -0.57045,1.27415 -1.27415,1.27415c-0.70369,0 -1.27415,-0.57045 -1.27415,-1.27415z" fill="#f2d855" stroke="none" stroke-width="0" stroke-linecap="butt"/><path d="M259.49103,166.35991c0,-0.73429 0.59526,-1.32955 1.32955,-1.32955c0.73429,0 1.32954,0.59526 1.32954,1.32955c0,0.73429 -0.59526,1.32954 -1.32954,1.32954c-0.73429,0 -1.32955,-0.59526 -1.32955,-1.32954z" fill="#f2d855" stroke="none" stroke-width="0" stroke-linecap="butt"/><path d="M264.58762,170.68094c0,-0.79548 0.64485,-1.44034 1.44034,-1.44034c0.79548,0 1.44033,0.64485 1.44033,1.44034c0,0.79548 -0.64485,1.44034 -1.44033,1.44034c-0.79548,0 -1.44034,-0.64485 -1.44034,-1.44034z" fill="#f2d855" stroke="none" stroke-width="0" stroke-linecap="butt"/><path d="M261.72525,201.31444c0.05204,-1.7292 2.82625,-4.46129 5.12575,-3.70193c1.64273,0.54248 -2.73132,6.92926 -4.46129,6.92926c-0.77152,0 -0.71702,-1.48005 -0.66445,-3.22733z" fill="#fdfdf0" stroke="none" stroke-width="0" stroke-linecap="butt"/><path d="M221.8688,174.89523h10.51364" fill="none" stroke="#c07f07" stroke-width="2.5" stroke-linecap="round"/><path d="M258.11494,174.93492h-10.51364" fill="none" stroke="#c07f07" stroke-width="2.5" stroke-linecap="round"/><path d="M223.77323,175.67671c-0.12852,-0.0515 -0.26177,-0.1646 -0.28316,-0.41084c-0.04299,-0.49503 0.45202,-0.53803 0.45202,-0.53803l0.1493,-0.01266c1.38644,-0.07071 2.78992,-0.05873 4.17912,-0.07783c1.81394,0.11343 2.35906,1.61463 1.18409,3.00897c-1.29786,1.54018 -4.07198,1.4748 -5.15832,-0.26367c-0.30874,-0.49407 -0.40753,-1.13757 -0.52306,-1.70591z" fill="#c07f07" stroke="none" stroke-width="0.5" stroke-linecap="butt"/><path d="M250.02677,175.78948c-0.12852,-0.0515 -0.26177,-0.1646 -0.28316,-0.41085c-0.04301,-0.49503 0.45203,-0.53803 0.45203,-0.53803l0.1493,-0.01266c1.38644,-0.07071 2.78992,-0.05874 4.17913,-0.07783c1.81394,0.11343 2.35906,1.61463 1.18409,3.00896c-1.29786,1.54018 -4.07198,1.47481 -5.15832,-0.26367c-0.30874,-0.49405 -0.40753,-1.13757 -0.52306,-1.70592z" fill="#c07f07" stroke="none" stroke-width="0.5" stroke-linecap="butt"/><path d="M248.93136,190.72821c-0.67757,0.47617 -1.15373,-0.20141 -1.15373,-0.20141l-0.19422,-0.27637c-1.09458,-1.55822 -1.96031,-3.26704 -2.59161,-5.06342c-0.24248,-0.73613 -0.29941,-1.56535 -0.73651,-2.20537c-0.26992,-0.39523 -1.83894,-0.04753 -2.05433,-0.03063c-1.32167,0.10363 -3.87634,-0.14968 -4.99669,0.75068c-0.49623,0.39879 -0.67856,1.57448 -0.94894,2.10597c-0.83284,1.63721 -1.33823,2.90297 -2.97093,3.93805c0,0 -0.70118,0.44066 -1.14185,-0.2605c-0.44066,-0.70117 0.26051,-1.14185 0.26051,-1.14185c2.244,-1.39558 1.8282,-4.34227 3.72392,-5.89977c1.64836,-1.35427 5.06655,-1.15684 7.07895,-1.23936c0.91882,-0.03768 1.55048,-0.11858 2.2765,0.66501c0.34513,0.3725 0.96426,2.44167 1.07727,2.78396c0.57867,1.64895 1.37275,3.2154 2.3786,4.64459l0.19446,0.27669c0,0 0.47617,0.67757 -0.20142,1.15372z" fill="#c07f07" stroke="none" stroke-width="0.5" stroke-linecap="butt"/><path d="M236.00862,191.44541c-0.68287,-0.46857 -0.21429,-1.15141 -0.21429,-1.15141l0.75604,-1.0991c0.61959,-1.19022 0.86925,-2.30279 1.14178,-3.61377c0,0 0.16858,-0.81082 0.97939,-0.64223c0.81082,0.16858 0.64223,0.97939 0.64223,0.97939c-0.31135,1.49737 -0.63421,2.76642 -1.34332,4.12909l-0.81041,1.18376c0,0 -0.46857,0.68287 -1.15141,0.21429z" fill="#c07f07" stroke="none" stroke-width="0.5" stroke-linecap="butt"/><path d="M242.9024,189.55648c-0.67668,0.47744 -1.15412,-0.19924 -1.15412,-0.19924l-0.33408,-0.50168c-0.27188,-0.62288 -0.48128,-1.27655 -0.62411,-1.94101c0,0 -0.1705,-0.81041 0.63991,-0.98091c0.81041,-0.1705 0.98091,0.63991 0.98091,0.63991c0.11335,0.55316 0.28743,1.09744 0.51833,1.6127l0.17238,0.21611c0,0 0.47744,0.67668 -0.19924,1.1541z" fill="#c07f07" stroke="none" stroke-width="0.5" stroke-linecap="butt"/></g></g></svg>
